<?xml version="1.0" encoding="UTF-8"?>
<svg id="Layer_1" data-name="Layer 1" xmlns="http://www.w3.org/2000/svg" version="1.1" viewBox="0 0 130.7 75.3">
  <defs>
    <style>
      .cls-1 {
        fill: #d0df00;
      }

      .cls-1, .cls-2 {
        stroke-width: 0px;
      }

      .cls-2 {
        fill: #fff;
      }
    </style>
  </defs>
  <path class="cls-2" d="M54,0h0C57.5,0,60.4,2.9,60.4,6.4s-2.9,6.4-6.4,6.4-6.4-2.9-6.4-6.4S50.4,0,54,0"/>
  <path class="cls-1" d="M75.2,0h32.3C111,0,113.9,2.9,113.9,6.4s-2.9,6.4-6.4,6.4h-32.3c-3.5,0-6.4-2.9-6.4-6.4S71.7,0,75.2,0"/>
  <path class="cls-2" d="M6.4,33.7h79.9c3.5,0,6.4-2.9,6.4-6.4s-2.9-6.4-6.4-6.4H6.4c-3.5,0-6.4,2.9-6.4,6.4s2.9,6.4,6.4,6.4"/>
  <path class="cls-1" d="M107.1,33.7h17.2c3.5,0,6.4-2.9,6.4-6.4s-2.9-6.4-6.4-6.4h-17.2c-3.5,0-6.4,2.9-6.4,6.4,0,3.5,2.8,6.4,6.4,6.4"/>
  <path class="cls-2" d="M24,41.6h0c3.5,0,6.4,2.9,6.4,6.4s-2.9,6.4-6.4,6.4-6.4-2.9-6.4-6.4,2.8-6.4,6.4-6.4"/>
  <path class="cls-1" d="M43.2,54.5h81.1c3.5,0,6.4-2.9,6.4-6.4s-2.9-6.4-6.4-6.4H43.2c-3.5,0-6.4,2.9-6.4,6.4s2.8,6.4,6.4,6.4"/>
  <path class="cls-2" d="M68.4,75.3h18c3.5,0,6.4-2.9,6.4-6.4s-2.9-6.4-6.4-6.4h-18c-3.5,0-6.4,2.9-6.4,6.4,0,3.5,2.8,6.4,6.4,6.4"/>
  <path class="cls-1" d="M107.1,75.3h0c3.5,0,6.4-2.9,6.4-6.4s-2.9-6.4-6.4-6.4-6.4,2.9-6.4,6.4c0,3.5,2.8,6.4,6.4,6.4"/>
</svg>